<svg xmlns="http://www.w3.org/2000/svg" viewBox="0 0 97.75 97.75" width="97.75" height="97.75"><path d="M48.875 0C21.882 0 0 21.883 0 48.875S21.882 97.75 48.875 97.75 97.75 75.867 97.75 48.875 75.868 0 48.875 0zm3.443 25.67c.443-4.104 5.349-10.395 9.277-9.49 3.912.892 7.49 6.093 6.766 10.563-.709 4.477-4.258 10.385-9.799 9.66-5.531-.708-6.783-5.715-6.244-10.733zM40.726 14.393c4.138 0 7.481 4.76 7.481 10.652 0 5.89-3.344 10.657-7.481 10.657-4.141 0-7.493-4.768-7.493-10.657-.001-5.893 3.353-10.652 7.493-10.652zM17.361 39.626s.886-8.766 6.955-9.307c4.82-.422 8.373 4.855 8.742 7.878.22 1.96 1.243 10.928-6.253 12.537-7.482 1.616-10.266-7.048-9.444-11.108zm57.077 37.781c-4.097 9.671-19.086 4.645-19.086 4.645s-5.528-1.782-11.955-.352c-6.412 1.435-11.941.894-11.941.894s-7.503.182-9.642-9.305c-2.136-9.493 7.486-14.691 8.206-15.574.715-.902 5.703-4.297 8.912-9.672 3.218-5.362 12.847-9.662 19.63.896 4.998 7.162 13.561 13.785 13.561 13.785s6.416 5.018 2.315 14.683zm-1.247-22.023c-8.215.179-8.559-5.551-8.559-9.66 0-4.303.875-10.395 7.489-10.395 6.603 0 8.376 6.455 8.376 8.597.002 2.155.901 11.276-7.306 11.458z" fill="#2f7fda"/></svg>
