<svg height="1em" style="flex:none;line-height:1" viewBox="0 0 24 24" width="1em" xmlns="http://www.w3.org/2000/svg"><title>BaiLian</title><path d="M6.336 8.919v6.162l5.335-3.083L6.337 8.92z" fill="#1C54E3"></path><path d="M21.394 5.288s-.006-.006-.01-.006L17.01 2.754 6.336 8.92l5.335 3.082 9.701-5.6.016-.01a.635.635 0 00.006-1.1v-.003z" fill="#AA9AFF"></path><path d="M21.71 12.465a.62.62 0 00-.316.085s-.006 0-.009.003l-4.375 2.528 5.05 2.915h.006a2.06 2.06 0 00.28-1.04v-3.855a.637.637 0 00-.636-.636z" fill="#00EAD1"></path><path d="M22.06 17.996l-5.05-2.915L6.34 21.242l4.27 2.465s.016.006.022.012a2.102 2.102 0 002.093 0c.006-.003.016-.006.022-.012l8.538-4.93c.003 0 .006-.003.01-.006.321-.183.589-.45.775-.772h-.006l-.004-.003z" fill="#00CEC9"></path><path d="M11.672 11.998l-5.336 3.083-1.444.832-3.605 2.083H1.28c.173.303.416.555.709.738l.078.044.016.01.02.012 4.232 2.442 10.671-6.161-5.335-3.082z" fill="#00EAD1"></path><path d="M12.74.29c-.1-.06-.208-.107-.315-.148-.02-.006-.038-.016-.057-.022a2.121 2.121 0 00-.7-.12c-.233 0-.457.038-.668.11l-.031.01a2.196 2.196 0 00-.372.17L2.068 5.222s-.003 0-.006.003c-.324.183-.592.451-.781.773h.006l5.049 2.918L17.01 2.758 12.74.29z" fill="#7347FF"></path><path d="M1.287 6.001H1.28A2.06 2.06 0 001 7.041v9.915c0 .378.1.735.28 1.043h.007l5.049-2.918V8.919l-5.05-2.918z" fill="#0423DA"></path></svg>