<svg xmlns="http://www.w3.org/2000/svg" viewBox="0 0 512 512"><path d="M113.5 309.4L95.6 376l-65 1.4A254.9 254.9 0 0 1 0 256c0-42.5 10.3-82.5 28.6-117.7l58 10.6 25.4 57.6a152.2 152.2 0 0 0 1.5 103z" fill="#fbbb00"/><path d="M507.5 208.2a256.3 256.3 0 0 1-91.2 247.4l-73-3.7-10.4-64.5c29.9-17.6 53.3-45 65.6-78H261.6V208.3h246z" fill="#518ef8"/><path d="M416.3 455.6a256 256 0 0 1-385.8-78.3l83-67.9a152.2 152.2 0 0 0 219.4 78l83.4 68.2z" fill="#28b446"/><path d="M419.4 59l-83 67.8A152.3 152.3 0 0 0 112 206.5l-83.4-68.2a256 256 0 0 1 390.8-79.4z" fill="#f14336"/></svg>
