<?xml version="1.0" standalone="no"?><!DOCTYPE svg PUBLIC "-//W3C//DTD SVG 1.1//EN" "http://www.w3.org/Graphics/SVG/1.1/DTD/svg11.dtd"><svg t="1590478699692" class="icon" viewBox="0 0 1024 1024" version="1.1" xmlns="http://www.w3.org/2000/svg" p-id="36419" xmlns:xlink="http://www.w3.org/1999/xlink" width="200" height="200"><defs><style type="text/css"></style></defs><path d="M592.07430195 440.71236645L683.37031902 482.31623743l-102.16237132 224.17907612-91.29731162-41.60646006z" fill="#49DAF2" p-id="36420"></path><path d="M588.61011752 726.37553778l-118.57970567-53.98224593 114.56663703-251.39933235 118.57970569 53.98224593-114.56663705 251.39933235z m-78.83738072-68.86943605l63.95019061 29.1271111 89.71150222-196.8992711-63.95019061-29.12711112-89.71150222 196.89927112z" fill="#4C466D" p-id="36421"></path><path d="M786.54501925 297.62446222l-46.34447011 101.62125431c-15.40500543 33.91690272-55.7945995 48.93354667-89.71150223 33.52854125-33.91690272-15.40500543-48.93354667-55.7945995-33.52854123-89.71150223l46.34447012-101.62125431c4.01306864-8.67340642-3.10689185-18.25298963-12.55702123-17.21735902-62.13783703 6.86105283-118.83861333 48.28627753-141.10467161 113.4015526-26.27912691 76.7661195 6.99050667 162.72346075 78.19011161 201.68906271 86.99297185 47.63900839 194.43964839 10.87412148 234.82924246-77.67229629 25.50240395-56.05350717 17.86462815-118.7091595-14.88719012-165.95980642-5.43706075-7.76722963-17.21735902-6.73159902-21.23042766 1.9418074z" fill="#49DAF2" p-id="36422"></path><path d="M652.17194666 224.09468839c8.67340642 0 14.88719013 9.0617679 11.13302914 17.34681285l-46.34447012 101.62125431c-15.40500543 33.91690272-0.38836148 74.3064968 33.52854123 89.71150223 9.0617679 4.14252247 18.51189728 6.08432987 27.83257284 6.08432987 25.76131161 0 50.48699259-14.7577363 61.74947555-39.61287112l46.34447013-101.62125431c2.20071506-4.66033778 6.60214518-7.1199605 11.13302914-7.11996049 3.75416098 0 7.63777581 1.68289975 10.09739851 5.30760691 32.62236445 47.25064691 40.38959408 109.90629925 14.88719012 165.95980642-28.22093431 62.0083832-89.45259457 98.6438163-153.53223901 98.6438163-27.31475753 0-55.27678419-6.73159902-81.29700345-20.97152-71.19960494-39.09505581-104.59869235-124.9229432-78.1901116-201.68906272 22.26605827-65.11527506 78.96683457-106.41104592 141.1046716-113.40155259 0.64726914-0.25890765 1.16508445-0.25890765 1.55344592-0.25890766m0-30.03328789c-1.55344592 0-3.10689185 0.12945383-4.7897916 0.25890765-77.28393482 8.54395259-140.97521778 59.67821431-166.21871408 133.4668958-15.01664395 43.75539358-13.98101333 91.91221728 2.97743804 135.66761087 16.95845136 43.62593975 48.54518518 79.87301136 89.1936869 102.13906963 29.38601876 16.18172839 62.52619852 24.72568098 95.7958321 24.72568098 77.6722963 0 148.61299358-45.56774717 180.71754272-116.24953679 28.86820347-63.30292148 22.13660445-138.12723358-17.47626666-195.34582517-7.89668347-11.3919368-20.84206617-18.25298963-34.69362569-18.25298964-16.57008987 0-31.58673383 9.70903703-38.44778667 24.72568099l-46.34447012 101.62125432c-6.08432987 13.33374419-19.67698173 22.00715061-34.56417185 22.00715061-5.30760691 0-10.48576-1.16508445-15.40500544-3.3657995-9.0617679-4.14252247-16.05227457-11.65084445-19.54752789-21.10097383-3.49525333-9.45012939-3.23634569-19.67698173 0.90617678-28.86820345l46.34447013-101.62125433c5.95487605-13.07483653 4.91924543-28.22093431-2.84798419-40.26014025-7.89668347-12.29811358-21.10097383-19.5475279-35.59980248-19.54752789z" fill="#4C466D" p-id="36423"></path><path d="M780.71959703 310.44039111l-40.51904789 88.80532542c-15.40500543 33.91690272-55.7945995 48.93354667-89.71150223 33.52854125-33.91690272-15.40500543-48.93354667-55.7945995-33.52854123-89.71150223l40.5190479-88.80532542c-47.89791605 4.14252247-92.30057876 33.26963358-113.78991408 80.26137284-31.58673383 69.38725136-1.03563061 151.0726163 68.35162074 182.78880394 69.38725136 31.58673383 151.0726163 1.03563061 182.78880395-68.35162074 21.35988148-46.99173925 14.23992098-99.54999309-14.11046716-138.51559506z" fill="#38C9F1" p-id="36424"></path><path d="M763.63169185 434.71606518c13.07483653-28.60929581 11.9097521-60.06657581-0.25890766-86.47515654l-23.17223505 51.00480789c-15.40500543 33.91690272-55.7945995 48.93354667-89.71150223 33.52854125-33.91690272-15.40500543-48.93354667-55.7945995-33.52854123-89.71150223l23.17223506-51.0048079c-27.96202667 8.15559111-52.4288 27.96202667-65.37418272 56.57132248-23.81950419 52.16989235-0.77672297 113.66046025 51.39316939 137.47996444 52.16989235 23.81950419 113.78991408 0.77672297 137.47996444-51.39316939z" fill="#49BCEA" p-id="36425"></path><path d="M531.52097975 393.54974815c-0.51781531 0-1.16508445 0-1.68289975-0.12945384-8.28504494-0.9061768-14.11046717-8.41449876-13.20429037-16.57008986 1.94180741-16.6995437 6.47269136-33.01072592 13.46319801-48.5451852 8.02613728-17.73517431 19.15916642-33.65799506 32.75181828-47.2506469 10.22685235-10.09739852 21.74824297-18.90025876 34.30526421-26.02021926 7.24941431-4.01306864 16.31118222-1.55344592 20.45370468 5.69596839 4.01306864 7.24941431 1.55344592 16.31118222-5.69596839 20.45370469-10.22685235 5.82542222-19.67698173 12.94538272-27.96202667 21.10097383-11.13302914 11.13302914-20.0653432 23.94895803-26.66748839 38.44778667-5.69596839 12.55702124-9.45012939 25.89076543-11.00357531 39.48341728-0.77672297 7.63777581-7.24941431 13.33374419-14.7577363 13.3337442z" fill="#4C466D" p-id="36426"></path><path d="M526.9900958 577.37418272l91.26494814 41.68413234" fill="#49DAF2" p-id="36427"></path><path d="M520.86692978 591.05745225l12.45604725-27.33029198 91.2973116 41.6051655-12.45475272 27.33029199z" fill="#4C466D" p-id="36428"></path><path d="M481.99453456 662.83959941l-40.26661294 59.03094518L296.82119111 623.02736941l40.26661294-59.0309452z" fill="#49DAF2" p-id="36429"></path><path d="M445.69309235 742.81617383l-169.58451359-115.73172148 57.08913777-83.75662618 169.5845136 115.73172148-57.08913778 83.75662618z m-128.02983507-123.62840494l120.1331516 81.94427259 23.3016889-34.17581037-120.13315162-81.94427259-23.30168888 34.17581037z" fill="#4C466D" p-id="36430"></path><path d="M424.46266469 623.71865283l-40.26014025 59.0309452" fill="#49DAF2" p-id="36431"></path><path d="M371.83191671 674.26131058l40.26790748-59.03094519 24.80982597 16.92349882-40.26661293 59.0309452z" fill="#4C466D" p-id="36432"></path><path d="M391.96975408 597.82788741l-40.26014025 59.03094518" fill="#49DAF2" p-id="36433"></path><path d="M339.35324602 648.42232667l40.26661294-59.03094518 24.8111205 16.92220429-40.26661292 59.03223972z" fill="#4C466D" p-id="36434"></path><path d="M479.27818418 817.71540085a96.70200889 96.70200889 0 1 0 80.20026805-175.99156536 96.70200889 96.70200889 0 1 0-80.20026805 175.99156536Z" fill="#49DAF2" p-id="36435"></path><path d="M519.22286616 841.45999013c-15.53445925 0-31.19837235-3.23634569-46.2150163-10.09739852-27.1853037-12.42756741-47.89791605-34.56417185-58.25422222-62.52619852-10.48576-27.96202667-9.45012939-58.25422222 2.97743804-85.43952592s34.56417185-47.89791605 62.52619851-58.25422223c27.96202667-10.48576 58.25422222-9.32067555 85.43952594 2.97743803 56.05350717 25.50240395 80.90864197 91.91221728 55.27678418 147.96572444-18.64135111 41.0368632-59.28985283 65.37418272-101.75070815 65.37418272z m0.25890767-193.53347161c-9.70903703 0-19.28862025 1.68289975-28.60929581 5.17815309-20.45370469 7.63777581-36.63543309 22.78387358-45.69720099 42.71976296-9.0617679 19.80643555-9.83849086 42.07249383-2.20071506 62.52619852 7.63777581 20.45370469 22.78387358 36.63543309 42.59030914 45.69720099 41.0368632 18.64135111 89.58204839 0.51781531 108.2233995-40.51904791 18.64135111-41.0368632 0.51781531-89.58204839-40.51904789-108.2233995-10.74466765-4.78979161-22.26605827-7.37886815-33.78744889-7.37886815z" fill="#4C466D" p-id="36436"></path><path d="M495.97315299 781.07994059a56.44186864 56.44186864 0 1 0 46.81033043-102.72064613 56.44186864 56.44186864 0 1 0-46.81033043 102.72064613Z" fill="#38C9F1" p-id="36437"></path><path d="M506.81683081 757.28456141a30.29219555 30.29219555 0 1 0 25.12297609-55.12988777 30.29219555 30.29219555 0 1 0-25.12297609 55.12988777Z" fill="#49BCEA" p-id="36438"></path><path d="M258.82483064 629.64892619a68.86943605 68.86943605 0 1 0 43.88296646-130.5614121 68.86943605 68.86943605 0 1 0-43.88296646 130.5614121Z" fill="#49DAF2" p-id="36439"></path><path d="M280.89837036 648.18542617c-8.93231408 0-17.99408197-1.4239921-26.79694221-4.40143012-21.23042765-7.1199605-38.44778667-22.13660445-48.41573135-42.20194766-9.96794469-20.0653432-11.52139061-42.8492168-4.40143014-64.07964444s22.13660445-38.44778667 42.20194765-48.41573136c20.0653432-9.96794469 42.8492168-11.52139061 64.07964445-4.40143012s38.44778667 22.13660445 48.41573137 42.20194766c9.96794469 20.0653432 11.52139061 42.8492168 4.40143011 64.07964444s-22.13660445 38.44778667-42.20194766 48.41573135c-11.78029827 5.82542222-24.46677333 8.80286025-37.28270222 8.80286025z m-0.12945383-137.73887209c-8.15559111 0-16.31118222 1.94180741-23.94895802 5.69596839-12.81592889 6.34323753-22.52496592 17.47626667-27.05584987 31.06891851s-3.62470717 28.22093431 2.84798419 41.16631705c6.34323753 12.94538272 17.47626667 22.52496592 31.06891853 27.05584987s28.22093431 3.62470717 41.16631703-2.8479842c12.81592889-6.34323753 22.52496592-17.47626667 27.05584988-31.06891852s3.62470717-28.22093431-2.84798419-41.16631703c-6.34323753-12.94538272-17.47626667-22.52496592-31.06891853-27.05584988-5.69596839-1.94180741-11.52139061-2.84798419-17.21735902-2.84798419z" fill="#4C466D" p-id="36440"></path><path d="M267.98086295 602.4077295a40.13068642 40.13068642 0 1 0 25.57090185-76.07901872 40.13068642 40.13068642 0 1 0-25.57090185 76.07901872Z" fill="#38C9F1" p-id="36441"></path><path d="M273.91991196 584.73776366a21.48933531 21.48933531 0 1 0 13.6928051-40.73908704 21.48933531 21.48933531 0 1 0-13.6928051 40.73908704Z" fill="#49BCEA" p-id="36442"></path><path d="M804.15073975 786.70102124c-89.19368691 0-205.18431605-18.38244347-328.94217481-54.11169976-256.70693925-74.17704297-427.84489876-189.6498568-415.93514667-280.91480495 5.30760691-40.90740939 46.2150163-87.89914864 210.62137679-78.83738072 8.28504494 0.38836148 14.62828247 7.50832197 14.11046716 15.79336691-0.38836148 8.28504494-7.63777581 14.62828247-15.79336692 14.11046715-108.87066864-5.95487605-174.11539753 13.33374419-179.29355061 52.81716149-8.28504494 63.56182914 137.09160297 173.85648987 394.57526517 248.29244049 197.8054479 57.08913778 386.03131259 69.38725136 447.39242667 29.25656495 10.61521383-6.99050667 16.44063605-15.01664395 17.6057205-24.46677333 5.56651457-42.71976297-16.05227457-84.01553383-139.1628642-146.28282471-7.37886815-3.75416098-10.35630617-12.81592889-6.60214519-20.19479703 3.75416098-7.37886815 12.68647506-10.35630617 20.19479705-6.6021452 120.39205925 60.84329876 164.01799902 110.55356839 155.34459259 176.96338174-2.33016889 18.38244347-12.81592889 33.78744889-30.9394647 45.69720098-29.25656494 19.02971259-79.35519605 28.47984197-143.17593283 28.47984199z" fill="#4C466D" p-id="36443"></path><path d="M245.8163832 386.68869531m-24.72568098 0a24.72568098 24.72568098 0 1 0 49.45136197 0 24.72568098 24.72568098 0 1 0-49.45136197 0Z" fill="#F7554A" p-id="36444"></path><path d="M245.8163832 361.8335605c13.72210569 0 24.72568098 11.13302914 24.72568099 24.72568098 0 13.72210569-11.13302914 24.72568098-24.72568099 24.72568099s-24.72568098-11.13302914-24.72568098-24.72568099c0-13.59265185 11.00357531-24.72568098 24.72568098-24.72568098m0-29.90383408c-30.16274173 0-54.75896889 24.59622717-54.75896889 54.75896889s24.59622717 54.75896889 54.75896889 54.75896888c30.16274173 0 54.75896889-24.59622717 54.75896889-54.75896888s-24.59622717-54.75896889-54.75896889-54.75896889z" fill="#4C466D" p-id="36445"></path><path d="M404.9151368 299.95463111c-0.12945383 15.14609778-21.48933531 86.60461037-50.48699261 86.34570272 28.86820347 0.25890765 49.32190815 67.1865363 49.19245432 87.12242567 0.12945383-19.93588939 23.69005037-86.60461037 50.4869926-86.3457027-26.66748839-0.25890765-49.32190815-69.38725136-49.19245431-87.12242569z" fill="#FFFFFF" p-id="36446"></path><path d="M403.75005235 488.30994963c-0.12945383 0-0.12945383 0 0 0-8.41449876 0-15.01664395-6.73159902-15.01664396-15.01664394v-0.12945384c0.12945383-20.84206617-20.45370469-71.84687408-34.3052642-71.9763279-8.28504494 0-14.88719013-6.73159902-14.88719011-15.01664395v-0.12945383c0-8.28504494 6.73159902-14.88719013 15.01664394-14.88719012h0.12945383c2.58907653 0 11.52139061-5.17815309 22.26605828-28.6092958 8.93231408-19.67698173 13.07483653-38.83614815 13.07483653-42.84921678 0-8.28504494 6.73159902-14.88719013 15.01664395-14.88719014h0.12945383c8.28504494 0 14.88719013 6.86105283 14.88719013 15.14609778-0.12945383 19.41807408 23.04278124 71.84687408 34.30526419 71.97632791 8.28504494 0 14.88719013 6.73159902 14.88719012 15.01664395v0.12945383c0 8.28504494-6.73159902 14.88719013-15.14609777 14.88719011-2.71853037 0-11.65084445 6.60214518-21.61878914 27.1853037-8.93231408 18.38244347-13.72210569 37.54160987-13.72210567 44.27320889-0.12945383 8.28504494-6.86105283 14.88719013-15.01664395 14.88719013z m-19.0297126-102.13906963c8.15559111 8.54395259 14.62828247 19.93588939 19.80643555 31.84564148 0.25890765-0.64726914 0.64726914-1.29453827 0.90617679-1.9418074 6.08432987-12.42756741 12.42756741-22.26605827 19.15916642-29.5154726-8.02613728-8.93231408-14.7577363-20.71261235-19.93588937-32.75181828-0.12945383 0.38836148-0.38836148 0.77672297-0.51781531 1.16508445-5.95487605 13.20429037-12.42756741 23.56059653-19.41807408 31.19837235z" fill="#4C466D" p-id="36447"></path><path d="M964.28512394 504.8800395m-31.58673381 0a31.58673383 31.58673383 0 1 0 63.17346765 0 31.58673383 31.58673383 0 1 0-63.17346765 0Z" fill="#F7554A" p-id="36448"></path><path d="M964.28512394 473.29330569c17.47626667 0 31.58673383 14.11046717 31.58673384 31.58673381 0 17.47626667-14.11046717 31.58673383-31.58673384 31.58673383-17.47626667 0-31.58673383-14.11046717-31.58673381-31.58673383 0-17.47626667 14.23992098-31.58673383 31.58673381-31.58673381m0-30.03328791c-33.91690272 0-61.62002173 27.57366518-61.62002172 61.62002172 0 33.91690272 27.57366518 61.62002173 61.62002172 61.62002174 33.91690272 0 61.62002173-27.57366518 61.62002174-61.62002174s-27.57366518-61.62002173-61.62002174-61.62002172z" fill="#4C466D" p-id="36449"></path><path d="M79.20930764 578.40981333c-0.12945383 13.07483653-18.64135111 74.69485827-43.49648592 74.56540445 24.98458864 0.12945383 42.59030914 57.99531457 42.46085531 75.08321975 0.12945383-17.21735902 20.45370469-74.69485827 43.49648593-74.56540444-23.04278124-0.12945383-42.59030914-59.80766815-42.46085532-75.08321976z" fill="#FFFFFF" p-id="36450"></path><path d="M78.17367703 743.07508148c-0.12945383 0-0.12945383 0 0 0-8.28504494 0-15.01664395-6.73159902-15.01664395-15.01664395v-0.12945383c0-5.82542222-3.62470717-22.52496592-10.48576-37.6710637-7.63777581-16.82899753-14.7577363-22.3955121-17.08790518-22.3955121-8.28504494 0-14.88719013-6.73159902-14.88719012-15.01664395v-0.12945382c0-8.28504494 6.73159902-14.88719013 15.01664394-14.88719013h0.12945383c9.70903703 0 28.22093431-45.17938569 28.47984197-59.67821431 0.12945383-8.28504494 6.73159902-14.88719013 15.14609778-14.88719014 8.28504494 0.12945383 14.88719013 6.73159902 14.88719013 15.01664395-0.12945383 13.59265185 17.6057205 57.47749925 27.70311901 60.06657581 0.38836148 0 0.77672297 0 1.16508444 0.12945383 7.76722963 0.64726914 13.72210569 7.1199605 13.59265186 15.01664395 0 8.28504494-6.86105283 14.88719013-15.14609778 14.88719011h-0.12945382c-9.5795832 1.68289975-28.35038815 43.75539358-28.47984198 59.67821433 0 8.28504494-6.73159902 15.01664395-14.88719013 15.01664395z m-13.72210567-90.22931753c4.78979161 5.43706075 9.70903703 12.81592889 14.3693748 22.65441975 4.14252247-8.28504494 9.19122173-16.05227457 14.88719014-22.39551209-5.69596839-6.60214518-10.48576-14.7577363-14.62828247-23.30168889-4.01306864 8.41449876-8.80286025 16.57008987-14.62828247 23.04278123z" fill="#4C466D" p-id="36451"></path><path d="M827.84079013 633.03932839c0.9061768 20.71261235-23.56059653 119.22697482-62.91456 120.78042075 39.35396347-1.68289975 71.58796642 88.02860247 72.75305085 115.21390617-1.16508445-27.05584987 26.53803457-119.22697482 62.91456-120.78042074-36.37652543 1.4239921-71.71742025-91.13549431-72.75305085-115.21390618z" fill="#FFFFFF" p-id="36452"></path><path d="M837.67928098 883.92084543c-8.02613728 0-14.62828247-6.34323753-15.01664395-14.36937482-1.03563061-25.76131161-31.58673383-101.88016197-57.08913778-100.84453136-8.15559111 0.25890765-15.27555161-6.08432987-15.66391309-14.3693748v-0.64726914c0-8.02613728 6.34323753-14.62828247 14.36937482-15.01664395 7.37886815-0.25890765 20.58315852-11.9097521 33.26963359-43.88484741 10.61521383-26.66748839 15.66391309-54.11169975 15.27555159-61.36111408-0.38836148-8.28504494 6.08432987-15.27555161 14.36937482-15.66391307 8.15559111-0.38836148 15.27555161 6.08432987 15.6639131 14.36937481 0.38836148 8.80286025 8.15559111 35.47034864 21.4893353 60.84329876 14.62828247 27.96202667 28.22093431 40.38959408 35.7292563 39.87177877 8.41449876-0.38836148 15.27555161 6.08432987 15.66391308 14.36937481v0.64726914c0 8.02613728-6.34323753 14.62828247-14.36937482 15.01664394-7.37886815 0.25890765-20.19479703 13.33374419-32.36345678 41.68413236-11.26248297 26.40858075-16.57008987 53.8527921-16.1817284 63.56182913v0.64726913c0 8.02613728-6.34323753 14.62828247-14.36937482 15.01664396-0.38836148 0.12945383-0.51781531 0.12945383-0.77672296 0.12945382z m-39.22450962-131.91344988c15.53445925 13.20429037 28.0914805 34.56417185 37.15324839 55.66514569 1.81235358-4.91924543 3.62470717-9.83849086 5.6959684-14.62828248 8.02613728-18.90025876 17.08790518-33.52854124 26.79694221-43.62593974-10.48576-9.32067555-20.71261235-23.43114272-30.42164938-42.33140149-2.45962272-4.78979161-4.91924543-9.83849086-7.11996048-14.88719012-1.55344592 4.66033778-3.23634569 9.32067555-5.04869927 13.8515595-8.15559111 20.19479703-17.08790518 35.47034864-27.05584987 45.95610864z" fill="#4C466D" p-id="36453"></path></svg>