<?xml version="1.0" standalone="no"?><!DOCTYPE svg PUBLIC "-//W3C//DTD SVG 1.1//EN" "http://www.w3.org/Graphics/SVG/1.1/DTD/svg11.dtd"><svg t="1590477918132" class="icon" viewBox="0 0 1024 1024" version="1.1" xmlns="http://www.w3.org/2000/svg" p-id="1606" xmlns:xlink="http://www.w3.org/1999/xlink" width="200" height="200"><defs><style type="text/css"></style></defs><path d="M779.269 629.9l84.653-84.654c81.775-84.554 80.651-219.053-2.506-302.209-83.182-83.182-217.68-84.299-302.233-2.532l-84.654 84.654-33.842 33.842 304.69 304.741 33.892-33.842z" fill="#5794CF" p-id="1607"></path><path d="M182.301 824.249c-94.363-94.371-94.363-247.353 0-341.725L322.1 342.775l31.047-31.063 108.72-108.762c94.833-91.525 245.525-90.186 338.713 3.019 93.189 93.188 94.529 243.864 3.019 338.714L694.871 653.387l-31.096 31.047-139.766 139.815c-94.372 94.339-247.354 94.339-341.708 0m512.57-232.954l77.665-77.674c75.027-77.575 73.994-200.965-2.308-277.268-76.301-76.3-199.708-77.334-277.267-2.307l-77.673 77.666-31.047 31.063 279.533 279.566 31.097-31.046zM492.962 793.203l139.767-139.816-279.582-279.565-139.75 139.799-15.531 15.531 1.521 1.571c-61.952 77.608-57.908 190.563 14.01 262.479 71.852 71.868 184.855 75.896 262.479 13.96l1.554 1.555 15.532-15.514z m231.385-542.061L693.3 282.188c-43.543-28.764-101.318-22.934-138.245 13.952l-77.624 77.683-31.095-31.047 77.673-77.681c54.012-53.824 139.378-59.771 200.338-13.953" fill="#33363B" p-id="1608"></path></svg>