<svg height="1em" style="flex:none;line-height:1" viewBox="0 0 24 24" width="1em" xmlns="http://www.w3.org/2000/svg"><title>Nvidia</title><path d="M10.212 8.976V7.62c.127-.01.256-.017.388-.021 3.596-.117 5.957 3.184 5.957 3.184s-2.548 3.647-5.282 3.647a3.227 3.227 0 01-1.063-.175v-4.109c1.4.174 1.681.812 2.523 2.258l1.873-1.627a4.905 4.905 0 00-3.67-1.846 6.594 6.594 0 00-.729.044m0-4.476v2.025c.13-.01.259-.019.388-.024 5.002-.174 8.261 4.226 8.261 4.226s-3.743 4.69-7.643 4.69c-.338 0-.675-.031-1.007-.092v1.25c.278.038.558.057.838.057 3.629 0 6.253-1.91 8.794-4.169.421.347 2.146 1.193 2.501 1.564-2.416 2.083-8.048 3.763-11.24 3.763-.308 0-.603-.02-.894-.048V19.5H24v-15H10.21zm0 9.756v1.068c-3.356-.616-4.287-4.21-4.287-4.21a7.173 7.173 0 014.287-2.138v1.172h-.005a3.182 3.182 0 00-2.502 1.178s.615 2.276 2.507 2.931m-5.961-3.3c1.436-1.935 3.604-3.148 5.961-3.336V6.523C5.81 6.887 2 10.723 2 10.723s2.158 6.427 8.21 7.015v-1.166C5.77 16 4.25 10.958 4.25 10.958h-.002z" fill="#74B71B" fill-rule="nonzero"></path></svg>