<svg xmlns="http://www.w3.org/2000/svg" viewBox="0 0 500 500" width="500" height="500"><g fill="none" stroke="#ff7118" stroke-linecap="round" stroke-miterlimit="10" stroke-width="50"><path d="M353.1672 448.22A221.78 221.78 0 0 1 250.5 473.2405c-123.0162 0-222.74-99.7243-222.74-222.74S127.4838 27.76 250.5 27.76s222.7405 99.7238 222.7405 222.74a221.8153 221.8153 0 0 1-23.4442 99.5794M457.1626 409.06a224.0383 224.0383 0 0 1-45.5513 45.7174"/></g><path d="M370.81 171.8827c2.408-5.2836 5.1433-19.1-14.9156-30.9534-18.4142-10.8811-53.506-20.0589-102.8818-18.9367s-87.8482 14.5109-111.6255 33.5328c-50.4591 40.3672-16.0222 71.9518 8.9462 87.3818 19.6869 12.1661 97.7386 38.0449 112.1554 40.9283s33.1588 11.5335 33.1588 24.5087-20.1914 22.6539-43.196 24.8983-81.5761-4.91-100.092-10.24-29.0565.7038-31.5613 8.51c-2.2093 6.885-2.2755 17.4327 18.9368 26.979s102.1805 28.896 165.3809 16.6924 79.347-43.0639 80.3756-64.1039-14.0895-46.15-51.76-62.7017-85.6907-25.81-98.3931-30.4391-30.0962-10.52-29.2546-25.3892 20.62-21.1811 26.9323-22.7241 27.8674-5.5174 56.0153-2.6184 37.6774 7.7007 50.7318 11.0815c18.235 4.722 28.6385-1.1227 31.0468-6.4063z" fill="#ff7118"/></svg>
